<svg xmlns="http://www.w3.org/2000/svg" width="2300" height="2047" viewBox="0 0 2300 2047" version="1.1">
	<path d="M 641.255 2.433 C 551.073 21.432, 487.798 87.130, 459.004 191.661 C 451.555 218.705, 446.297 248.793, 442.780 284.500 C 440.731 305.313, 441.076 388.288, 443.320 413.939 C 449.266 481.926, 459.772 545.169, 477.385 619 C 479.812 629.175, 481.731 637.528, 481.649 637.562 C 481.567 637.597, 475.650 639.315, 468.500 641.381 C 375.832 668.154, 286.242 704.233, 218.010 742.257 C 95.282 810.650, 22.205 892.087, 4.593 980.090 C -4.119 1023.621, -0.264 1064.245, 16.557 1106.157 C 64.844 1226.473, 221.756 1331.611, 457.500 1401.609 C 469.600 1405.201, 480.055 1408.317, 480.733 1408.533 C 481.411 1408.748, 481.770 1409.504, 481.531 1410.212 C 481.291 1410.920, 479.069 1420.050, 476.594 1430.500 C 457.238 1512.206, 445.953 1585.359, 441.903 1655.374 C 440.384 1681.639, 441.274 1747.088, 443.435 1768 C 449.990 1831.431, 463.214 1880.066, 485.531 1922.822 C 498.342 1947.365, 511.950 1966.055, 530.454 1984.523 C 563.321 2017.325, 602.947 2037.523, 650.125 2045.521 C 658.166 2046.885, 665.822 2047.089, 696.625 2046.764 C 737.847 2046.329, 743.340 2045.660, 776.500 2037.027 C 883.570 2009.153, 1005.025 1931.801, 1135.724 1808.248 L 1149.948 1794.801 1170.224 1813.765 C 1229.927 1869.606, 1281.510 1911.213, 1336 1947.483 C 1413.757 1999.239, 1484.389 2030.563, 1553 2043.720 C 1567.355 2046.472, 1567.901 2046.500, 1607.500 2046.500 C 1651.187 2046.500, 1653.032 2046.312, 1677.211 2039.378 C 1773.469 2011.774, 1836.375 1923.156, 1853.879 1790.500 C 1857.959 1759.577, 1858.501 1748.845, 1858.451 1700 C 1858.394 1643.922, 1856.338 1615.304, 1848.395 1560 C 1842.291 1517.503, 1826.911 1440.583, 1819.007 1413.026 C 1818.472 1411.159, 1818.217 1409.450, 1818.439 1409.227 C 1818.662 1409.004, 1829.792 1405.528, 1843.172 1401.501 C 1961.101 1366.014, 2058.315 1322.892, 2133.340 1272.787 C 2209.563 1221.883, 2260.234 1165.149, 2284.472 1103.573 C 2290.478 1088.315, 2296.540 1064.559, 2298.017 1050.491 C 2298.651 1044.446, 2299.582 1038.719, 2300.085 1037.764 C 2301.230 1035.591, 2301.281 1006.008, 2300.138 1007.812 C 2299.633 1008.607, 2299.063 1005.969, 2298.688 1001.110 C 2297.825 989.915, 2293.612 969.859, 2289.349 956.653 C 2256.900 856.117, 2154.821 767.878, 1989 697.027 C 1945.745 678.546, 1886.001 657.272, 1838.500 643.437 C 1827.500 640.233, 1818.421 637.583, 1818.325 637.547 C 1818.229 637.512, 1820.144 629.162, 1822.581 618.992 C 1840.029 546.181, 1850.836 481.317, 1856.566 415 C 1858.719 390.093, 1859.597 323.991, 1858.094 300 C 1852.165 205.330, 1828.556 133.045, 1786.314 80.225 C 1756.966 43.528, 1716.522 17.169, 1671.760 5.565 C 1650.338 0.012, 1647.498 -0.207, 1602.500 0.230 C 1562.471 0.619, 1561.192 0.693, 1548.500 3.357 C 1431.086 27.996, 1307.513 103.411, 1165.024 237.389 C 1157.063 244.875, 1150.298 251, 1149.992 251 C 1149.686 251, 1142.475 244.428, 1133.968 236.396 C 995.615 105.776, 868.848 28.251, 753.631 3.800 L 738.500 0.588 695.500 0.326 C 653.579 0.071, 652.218 0.123, 641.255 2.433 M 679 98.097 C 597.722 104.012, 550.900 173.811, 541.930 302.432 C 540.371 324.777, 541.254 387.356, 543.467 411.500 C 548.536 466.780, 558.431 526.722, 571.944 584 C 578.745 612.828, 578.876 613.262, 580.558 612.616 C 583.382 611.532, 633.953 601.074, 658 596.600 C 720.632 584.949, 789.854 574.968, 852.500 568.557 C 866.250 567.150, 879.340 565.757, 881.588 565.462 C 885.553 564.942, 886.006 564.466, 896.570 549.713 C 948.855 476.699, 1009.659 401.175, 1067.423 337.500 L 1080.123 323.500 1068.229 312 C 1061.687 305.675, 1049.847 294.610, 1041.917 287.411 C 901.448 159.882, 770.273 91.456, 679 98.097 M 1595.500 98.046 C 1524.791 103.036, 1437.693 144.401, 1338.500 220.101 C 1306.570 244.468, 1262.224 282.593, 1233.186 310.640 L 1219.872 323.500 1228.547 333 C 1286.385 396.339, 1349.106 474.075, 1403.412 549.725 C 1414.011 564.490, 1414.441 564.941, 1418.412 565.438 C 1420.660 565.719, 1431.725 566.883, 1443 568.023 C 1532.285 577.056, 1632.538 592.992, 1712.241 610.823 L 1720.982 612.779 1721.961 609.139 C 1724.779 598.658, 1731.398 569.975, 1735.377 551 C 1745.731 501.632, 1752.675 454.874, 1757.208 404 C 1758.967 384.259, 1758.958 305.891, 1757.195 289 C 1750.962 229.276, 1737.755 185.779, 1715.889 152.958 C 1703.837 134.866, 1683.532 117.085, 1665.751 109.051 C 1645.977 100.117, 1621.187 96.233, 1595.500 98.046 M 1133.326 413.750 C 1102.264 448.521, 1078.697 476.465, 1050.887 511.500 C 1025.764 543.148, 1016.710 555.043, 1017.295 555.628 C 1017.577 555.911, 1031.239 555.575, 1047.654 554.881 C 1086.698 553.232, 1213.302 553.232, 1252.346 554.881 C 1268.761 555.575, 1282.427 555.906, 1282.715 555.618 C 1283.619 554.714, 1242.102 501.988, 1214.119 468.500 C 1189.803 439.401, 1151.406 396, 1149.979 396 C 1149.541 396, 1142.046 403.988, 1133.326 413.750 M 1095.500 653.679 C 1049.246 654.472, 941.695 659.751, 940.409 661.292 C 940.314 661.406, 932.605 673.020, 923.280 687.099 C 857.082 787.042, 797.870 889.605, 745.357 995.286 L 731.550 1023.071 747.362 1054.786 C 800.736 1161.844, 856.611 1258.611, 922.289 1357.736 C 938.508 1382.215, 940.647 1385.023, 943.417 1385.471 C 947.473 1386.126, 988.768 1388.679, 1016.500 1389.988 C 1101.339 1393.992, 1202.361 1393.999, 1283.500 1390.005 C 1317.310 1388.341, 1357.894 1385.686, 1358.810 1385.077 C 1361.174 1383.508, 1395.223 1331.710, 1419.994 1292 C 1468.927 1213.557, 1510.943 1138.418, 1552.637 1054.789 L 1568.446 1023.078 1555.644 997.289 C 1502.752 890.742, 1444.688 789.994, 1378.172 689.355 L 1359.570 661.210 1354.035 660.610 C 1346.662 659.810, 1304.978 657.327, 1277 656.020 C 1224.370 653.562, 1154.714 652.663, 1095.500 653.679 M 793.500 676.088 C 723.393 686.070, 670.946 695.233, 616.366 707.034 L 606.231 709.226 608.659 717.132 C 613.364 732.451, 629.303 778.761, 638.210 802.989 C 655.285 849.432, 677.886 905.552, 679.017 904.311 C 679.424 903.865, 684.380 894.725, 690.032 884 C 721.168 824.911, 761.146 755.581, 798.149 696.500 C 805.039 685.500, 811 675.938, 811.397 675.250 C 812.331 673.632, 809.978 673.742, 793.500 676.088 M 1488.521 675.117 C 1488.963 675.878, 1494.947 685.485, 1501.820 696.466 C 1539.771 757.105, 1577.634 822.769, 1609.956 884 C 1615.617 894.725, 1620.580 903.864, 1620.983 904.309 C 1622.178 905.624, 1647.251 842.973, 1664.528 795.500 C 1672.992 772.245, 1694.076 709.743, 1693.613 709.280 C 1693.487 709.154, 1682.835 706.816, 1669.942 704.084 C 1625.817 694.734, 1573.299 685.564, 1524 678.600 C 1488.110 673.530, 1487.568 673.477, 1488.521 675.117 M 485.500 740.582 C 369.463 776.012, 279.591 816.437, 212.500 863.377 C 174.480 889.978, 143.390 920.056, 125.032 948 C 95.926 992.302, 92.366 1035.448, 114.190 1079.409 C 149.604 1150.748, 248.637 1219.863, 394.500 1275.038 C 428.903 1288.051, 505.260 1312.747, 508.133 1311.789 C 508.720 1311.593, 514.500 1295.473, 520.977 1275.966 C 547.658 1195.606, 579.152 1115.464, 615.133 1036.371 L 621.106 1023.242 611.935 1002.871 C 576.111 923.300, 548.095 851.681, 521.428 771.500 C 513.984 749.119, 508.604 734.435, 507.811 734.335 C 507.090 734.244, 497.050 737.056, 485.500 740.582 M 1790.511 735.250 C 1790.276 735.938, 1786.414 747.750, 1781.928 761.500 C 1755.224 843.348, 1723.510 924.562, 1685.422 1008.635 L 1678.861 1023.117 1688.869 1045.356 C 1723.728 1122.815, 1753.173 1198.146, 1779.006 1275.963 C 1785.481 1295.468, 1791.271 1311.590, 1791.873 1311.791 C 1794.713 1312.738, 1869.160 1288.732, 1904.500 1275.473 C 1994.567 1241.683, 2070.075 1200.447, 2121.752 1156.829 C 2133.754 1146.699, 2153.145 1127.177, 2161.319 1116.994 C 2219.069 1045.058, 2211.978 976.886, 2139.368 905.953 C 2081.525 849.447, 1988.103 798.656, 1865.415 757.014 C 1841.210 748.798, 1793.850 734, 1791.761 734 C 1791.308 734, 1790.745 734.563, 1790.511 735.250 M 1130 819.121 C 1017.618 830.422, 934.739 931.355, 946.048 1043.144 C 955.861 1140.149, 1031.252 1216.111, 1128.500 1226.978 C 1181.316 1232.880, 1237.761 1216.106, 1279.296 1182.167 C 1365.049 1112.095, 1379.921 986.911, 1312.944 898.926 C 1270.286 842.888, 1199.728 812.109, 1130 819.121 M 0.402 1023 C 0.402 1031.525, 0.556 1035.013, 0.743 1030.750 C 0.931 1026.487, 0.931 1019.513, 0.743 1015.250 C 0.556 1010.987, 0.402 1014.475, 0.402 1023 M 668.250 1165.750 C 648.529 1214.158, 631.295 1260.736, 615.986 1307 C 609.206 1327.489, 606.576 1336.704, 607.376 1337.167 C 608.824 1338.007, 672.785 1350.907, 695.500 1354.940 C 736.368 1362.197, 805.175 1372.380, 809.481 1371.809 C 811.646 1371.522, 810.871 1370.004, 798.595 1350.500 C 762.125 1292.552, 717.749 1215.465, 687.060 1156.750 C 682.533 1148.088, 678.717 1141, 678.581 1141 C 678.445 1141, 673.796 1152.138, 668.250 1165.750 M 1617.436 1148.148 C 1594.584 1193.658, 1542.804 1284.107, 1504.351 1345.683 C 1495.358 1360.083, 1488 1372.048, 1488 1372.272 C 1488 1372.495, 1490.588 1372.318, 1493.750 1371.878 C 1496.912 1371.438, 1509.625 1369.696, 1522 1368.006 C 1558.809 1362.979, 1608.910 1354.431, 1651.386 1345.930 C 1673.323 1341.539, 1691.846 1337.622, 1692.547 1337.224 C 1694.668 1336.019, 1669.554 1262.564, 1647.523 1205.534 C 1638.824 1183.016, 1622.194 1141.935, 1621.458 1141.148 C 1621.277 1140.954, 1619.467 1144.104, 1617.436 1148.148 M 578.505 1435.250 C 576.309 1441.604, 563.906 1497.198, 559.597 1520 C 547.403 1584.529, 542.060 1634.279, 541.280 1690.529 C 540.617 1738.423, 542.471 1765.767, 548.601 1798.500 C 570.361 1914.702, 631.479 1963.751, 731 1944.883 C 825.290 1927.007, 942.120 1854.016, 1068.847 1733.809 L 1080.193 1723.046 1063.312 1704.273 C 1004.652 1639.042, 943.645 1562.942, 894.567 1493.782 L 885.634 1481.194 879.067 1480.549 C 787.216 1471.533, 707.526 1459.842, 626.500 1443.498 C 606.150 1439.393, 587.928 1435.576, 586.007 1435.017 C 581.353 1433.662, 579.029 1433.735, 578.505 1435.250 M 1707 1436.551 C 1631.046 1453.835, 1520.284 1471.019, 1426.385 1480.086 L 1414.270 1481.256 1404.951 1494.378 C 1354.563 1565.331, 1292.222 1642.911, 1232.672 1708.769 L 1219.771 1723.037 1230.635 1733.323 C 1256.625 1757.927, 1277.485 1776.622, 1299 1794.593 C 1387.923 1868.866, 1471.527 1918.339, 1542.001 1938.387 C 1611.061 1958.033, 1663.504 1949.694, 1699.259 1913.380 C 1730.361 1881.793, 1748.454 1834.082, 1756.690 1761.932 C 1758.912 1742.473, 1759.253 1666.028, 1757.221 1643 C 1752.157 1585.611, 1744.241 1534.781, 1731.449 1477.500 C 1722.228 1436.214, 1721.761 1434.533, 1719.441 1434.331 C 1718.373 1434.237, 1712.775 1435.236, 1707 1436.551 M 1017.090 1491.640 C 1017.964 1492.663, 1023.342 1499.575, 1029.041 1507 C 1062.040 1549.996, 1105.984 1602.702, 1139.682 1639.705 L 1149.886 1650.910 1157.090 1643.205 C 1185.213 1613.125, 1240.829 1546.428, 1275.951 1500.660 L 1284.270 1489.821 1274.385 1490.439 C 1221.801 1493.732, 1074.011 1493.720, 1025 1490.420 C 1015.806 1489.801, 1015.551 1489.840, 1017.090 1491.640" stroke="#61dafb" fill="#61dafb" fill-rule="evenodd"/>
</svg>